<svg width="1391" height="1371" viewBox="0 0 1391 1371" fill="none" xmlns="http://www.w3.org/2000/svg">
<path d="M666.102 219.128C674.591 179.772 684.181 135.125 668.802 89.2252C653.92 44.8156 636.834 18.6148 615.018 6.79963C591.539 -5.94437 568.211 2.06924 551.19 7.90124C545.099 9.99644 538.792 12.1348 534.839 12.4804C522.829 13.4524 513.131 13.1284 503.757 12.8044C478.852 11.8972 455.221 11.0548 419.43 36.9532C405.93 46.738 392.149 56.1772 378.39 65.5948C353.853 82.378 328.494 99.766 304.561 119.163C261.901 153.744 227.644 197.117 194.531 239.086L190.794 243.816C161.418 281.055 145.585 316.371 128.845 353.804C124.504 363.545 120.011 373.568 115.108 383.957C106.122 403.16 95.171 419.878 84.587 436.078C61.8206 470.919 38.2982 506.926 35.9222 563.496C34.0214 608.36 31.9694 640.436 21.1262 676.011L19.1174 682.599C6.71901 723.207 -7.38578 769.236 4.47262 816.756C8.05822 831.164 13.1774 844.296 18.1238 857.019C25.7702 876.696 32.3798 893.696 32.207 911.516C31.8182 949.791 34.8854 990.55 59.5742 1029.02C71.2382 1047.21 85.6022 1062.05 99.491 1076.41C104.697 1081.79 109.902 1087.17 114.913 1092.7C124.374 1103.17 131.005 1117.28 138.025 1132.2C149.776 1157.15 163.081 1185.47 193.213 1203.12C235.333 1227.78 274.948 1253.96 310.955 1280.92L326.334 1292.58C349.165 1309.97 372.753 1327.94 399.148 1342.46C448.482 1369.59 493.345 1369.87 540.865 1370.15C541.233 1370.15 541.578 1370.15 541.967 1370.15C562.919 1370.15 580.026 1366.45 594.239 1358.89L594.261 1358.87C671.545 1317.62 676.859 1194.5 667.701 1098.46C665.476 1075.22 659.104 1053.75 652.905 1032.95C649.578 1021.72 646.209 1010.53 643.66 999.19C636.705 968.129 642.45 936.118 648.563 902.206C653.79 873.024 659.212 842.871 657.009 811.054C655.216 785.35 650.745 760.942 646.403 737.312C638.821 696.12 631.672 657.197 639.75 616.265C653.358 547.296 653.229 476.859 653.121 408.732C653.056 363.156 652.969 316.004 657.138 270.579C658.629 253.925 662.257 237.034 666.102 219.128ZM613.312 207.766C609.273 226.45 605.125 245.76 603.311 265.697C598.948 313.628 599.034 362.033 599.099 408.862C599.207 477.377 599.315 542.091 586.744 605.832C576.678 656.852 585.102 702.73 593.267 747.096C597.522 770.252 601.54 792.132 603.117 814.834C604.866 839.933 600.265 865.572 595.405 892.68C588.645 930.372 581.625 969.36 590.977 1011.03C593.785 1023.58 597.457 1035.97 601.151 1048.37C606.853 1067.53 612.232 1085.63 613.96 1103.63C624.522 1214.63 608.106 1290.31 568.816 1311.27C562.465 1314.61 553.437 1316.23 541.211 1316.17C497.255 1315.89 462.522 1315.69 425.176 1295.13C402.301 1282.56 381.306 1266.58 359.08 1249.64L343.312 1237.72C305.685 1209.53 264.342 1182.23 220.473 1156.55C204.791 1147.34 196.497 1129.7 186.863 1109.24C178.849 1092.24 169.799 1072.93 154.917 1056.52C149.495 1050.55 143.879 1044.72 138.263 1038.91C125.649 1025.87 113.747 1013.58 104.999 999.903C88.8638 974.76 85.8398 947.631 86.1854 912.056C86.4446 883.846 76.8542 859.222 68.4302 837.471C63.8942 825.828 59.6174 814.812 56.8526 803.71C48.623 770.727 59.8766 733.964 70.7414 698.41L72.7934 691.757C86.423 646.959 88.1726 605.703 89.8574 565.808C91.607 524.055 108.433 498.286 129.774 465.648C141.373 447.893 153.383 429.533 163.989 406.918C169 396.204 173.622 385.88 178.115 375.857C194.121 340.109 207.945 309.243 233.152 277.275L236.889 272.544C268.187 232.908 300.544 191.933 338.538 161.11C360.786 143.096 384.136 127.09 408.889 110.156C423.037 100.479 437.207 90.7804 451.096 80.7148C467.706 68.662 476.649 66.502 490.451 66.502C493.864 66.502 497.601 66.6316 501.791 66.7828C511.792 67.1716 524.147 67.5388 539.332 66.3292C549.894 65.4436 559.852 62.0524 568.621 59.0284C574.929 56.8684 586.657 52.8508 589.228 54.298C591.453 55.5076 603.225 63.6724 617.567 106.44C628.259 138.257 621.001 172.018 613.312 207.766Z" fill="#C4FF61"/>
<path d="M365.365 804.855C381.522 813.214 406.038 824.511 432.498 826.131C433.038 826.153 433.621 826.174 434.161 826.174C448.309 826.174 460.211 815.136 461.097 800.816C462.004 785.955 450.685 773.146 435.781 772.217C419.538 771.224 401.999 762.994 390.184 756.881C351.174 736.685 318.753 708.994 298.902 678.884C271.125 636.785 257.949 583.541 262.722 532.825C268.489 471.826 289.312 415.558 319.876 378.471C349.619 342.377 394.05 322.095 437.509 324.579C452.759 325.184 465.114 313.93 465.892 299.048C466.691 284.165 455.243 271.443 440.361 270.665C379.621 267.512 318.753 294.922 278.166 344.127C240.928 389.336 215.699 456.252 208.96 527.749C202.933 591.382 218.853 655.621 253.801 708.605C278.685 746.319 318.299 780.49 365.365 804.855Z" fill="#C4FF61"/>
<path d="M503.13 666.831C488.701 653.396 472.134 644.691 457.554 637.001C445.458 630.651 434.053 624.646 425.176 616.827C410.833 604.169 400.249 588.25 394.547 570.689C376.079 513.989 418.869 451.112 432.433 433.184C441.419 421.304 439.086 404.369 427.185 395.362C415.283 386.355 398.349 388.709 389.363 400.611C366.877 430.332 317.349 508.071 343.204 587.386C351.865 614.084 367.893 638.276 389.514 657.327C403.23 669.401 418.069 677.22 432.412 684.78C445.156 691.498 457.187 697.827 466.345 706.337C485.764 724.438 498.789 750.898 505.031 785.069C510.042 812.501 516.911 850.02 503.411 872.484C491.617 892.076 466.518 903.74 436.17 903.74C435.911 903.74 435.695 903.74 435.457 903.74C402.474 903.524 368.649 881.189 339.942 859.352C313.806 839.501 288.059 819.176 262.312 798.872C248.315 787.812 234.318 776.796 220.257 765.824C192.652 744.288 173.817 716.943 167.185 688.863C163.773 674.326 149.171 665.34 134.721 668.753C120.184 672.166 111.198 686.703 114.611 701.218C124.05 741.264 149.776 779.324 187.057 808.397C201.011 819.305 214.943 830.3 228.897 841.272C254.881 861.771 280.888 882.269 307.261 902.336C343.074 929.573 386.274 957.437 435.133 957.718C435.501 957.718 435.825 957.718 436.17 957.718C485.656 957.718 528.057 936.313 549.721 900.284C573.741 860.324 564.388 809.175 558.189 775.349C549.765 729.557 531.232 693.032 503.13 666.831Z" fill="#C4FF61"/>
<path d="M529.05 1053.82C489.522 1022.17 439.777 1012.39 395.886 1003.77L388.261 1002.26C313.677 987.461 244.189 954.154 181.722 903.264C170.123 893.804 153.145 895.596 143.728 907.131C134.289 918.687 136.038 935.708 147.594 945.125C216.973 1001.67 294.409 1038.72 377.742 1055.26L385.432 1056.78C425.09 1064.55 466.065 1072.61 495.268 1095.98C509.524 1107.41 511.727 1125.77 511.014 1139.16C509.524 1168.69 492.741 1201.04 472.026 1214.39C459.498 1222.47 455.891 1239.19 463.969 1251.74C469.132 1259.73 477.837 1264.09 486.693 1264.09C491.704 1264.09 496.78 1262.71 501.316 1259.79C536.394 1237.16 562.552 1188.69 564.949 1141.92C566.872 1105.16 554.106 1073.88 529.05 1053.82Z" fill="#C4FF61"/>
<path d="M431.699 1134.6C410.423 1129.59 348.15 1112.37 316.096 1093.32C303.33 1085.7 286.72 1089.87 279.095 1102.74C271.449 1115.55 275.682 1132.12 288.513 1139.74C334.153 1166.89 415.845 1186.35 419.301 1187.17C421.396 1187.65 423.469 1187.89 425.521 1187.89C437.747 1187.89 448.849 1179.51 451.787 1167.09C455.2 1152.57 446.214 1138.03 431.699 1134.6Z" fill="#C4FF61"/>
<path d="M546.287 143.744C505.593 114.584 427.466 136.335 387.398 174.394C376.576 184.676 376.144 201.761 386.404 212.561C396.686 223.383 413.793 223.793 424.571 213.555C452.068 187.462 501.64 178.196 514.902 187.678C518.704 190.4 517.926 203.23 509.049 222.497C487.19 270.017 490.494 317.602 493.648 363.61C494.404 374.756 495.182 385.901 495.57 397.025C497.32 448.93 492.957 482.756 465.805 491.007C451.549 495.348 443.514 510.425 447.834 524.724C451.377 536.367 462.09 543.862 473.668 543.862C476.26 543.862 478.895 543.473 481.53 542.696C553.761 520.707 550.909 435.97 549.505 395.211C549.095 383.46 548.296 371.688 547.497 359.916C544.667 318.876 541.989 280.083 558.081 245.048C586.031 184.244 562.682 155.472 546.287 143.744Z" fill="#C4FF61"/>
<path d="M1369.68 675.989C1358.84 640.436 1356.78 608.36 1354.88 563.497C1352.51 506.926 1328.98 470.919 1306.22 436.078C1295.63 419.878 1284.68 403.16 1275.7 383.957C1270.79 373.568 1266.3 363.545 1261.96 353.804C1245.22 316.393 1229.39 281.055 1199.99 243.816L1196.27 239.086C1163.16 197.139 1128.9 153.744 1086.24 119.163C1062.31 99.7661 1036.95 82.3781 1012.41 65.5949C998.634 56.1557 984.875 46.7381 971.375 36.9533C935.584 11.0333 911.953 11.8541 887.049 12.8045C877.653 13.1501 867.911 13.4741 855.923 12.4589C852.013 12.1349 845.706 9.9965 839.615 7.9013C822.594 2.0693 799.331 -5.94431 775.765 6.79969C753.971 18.6365 736.885 44.8373 722.003 89.2253C706.624 135.125 716.214 179.751 724.703 219.128C728.548 237.034 732.177 253.925 733.689 270.6C737.836 316.047 737.749 363.178 737.706 408.754C737.598 476.881 737.469 547.318 751.077 616.287C759.155 657.219 752.005 696.121 744.424 737.333C740.082 760.964 735.611 785.372 733.818 811.076C731.593 842.893 737.015 873.046 742.264 902.228C748.355 936.14 754.122 968.173 747.167 999.212C744.618 1010.55 741.27 1021.76 737.922 1032.97C731.745 1053.77 725.351 1075.24 723.126 1098.51C713.968 1194.5 719.281 1317.64 796.566 1358.89L796.588 1358.92C810.801 1366.5 827.908 1370.17 848.881 1370.17C849.249 1370.17 849.594 1370.17 849.961 1370.17C897.46 1369.87 942.323 1369.61 991.657 1342.48C1018.07 1327.96 1041.66 1309.99 1064.49 1292.6L1079.85 1280.96C1115.88 1253.98 1155.49 1227.8 1197.61 1203.12C1227.75 1185.49 1241.05 1157.17 1252.8 1132.22C1259.82 1117.3 1266.45 1103.19 1275.89 1092.74C1280.9 1087.19 1286.13 1081.81 1291.34 1076.43C1305.22 1062.07 1319.59 1047.21 1331.27 1029.04C1355.94 990.572 1358.99 949.813 1358.62 911.537C1358.45 893.717 1365.06 876.718 1372.7 857.041C1377.65 844.318 1382.77 831.185 1386.35 816.778C1398.21 769.258 1384.11 723.229 1371.71 682.621L1369.68 675.989ZM1333.93 803.667C1331.17 814.791 1326.89 825.785 1322.35 837.428C1313.91 859.179 1304.34 883.803 1304.6 912.013C1304.94 947.588 1301.92 974.717 1285.81 999.86C1277.04 1013.53 1265.13 1025.82 1252.52 1038.87C1246.88 1044.7 1241.27 1050.51 1235.85 1056.49C1220.98 1072.91 1211.96 1092.2 1203.92 1109.2C1194.31 1129.65 1185.99 1147.32 1170.31 1156.48C1126.46 1182.16 1085.12 1209.49 1047.45 1237.7L1031.73 1249.6C1009.52 1266.53 988.504 1282.52 965.608 1295.09C928.261 1315.63 893.55 1315.85 849.594 1316.13C837.239 1315.89 828.318 1314.62 821.989 1311.22C782.721 1290.25 766.283 1214.56 776.845 1103.6C778.573 1085.59 783.952 1067.49 789.654 1048.33C793.348 1035.93 797.02 1023.53 799.828 1010.98C809.181 969.296 802.161 930.329 795.4 892.637C790.518 865.529 785.939 839.912 787.688 814.791C789.265 792.089 793.283 770.23 797.538 747.053C805.703 702.687 814.127 656.809 804.061 605.789C791.49 542.048 791.598 477.334 791.706 408.819C791.771 361.99 791.857 313.584 787.494 265.654C785.68 245.717 781.533 226.429 777.493 207.723C769.825 171.975 762.568 138.192 773.238 106.354C787.559 63.5861 799.353 55.4213 801.556 54.2117C804.148 52.7429 815.898 56.7821 822.184 58.9421C830.953 61.9661 840.911 65.3573 851.43 66.2213C866.658 67.5173 879.035 67.1069 889.014 66.6965C910.074 65.9405 918.995 65.5949 939.731 80.6501C953.641 90.7157 967.789 100.414 981.937 110.091C1006.69 127.025 1030.04 143.031 1052.29 161.045C1090.28 191.869 1122.64 232.844 1153.94 272.48L1157.65 277.21C1182.88 309.178 1196.71 340.045 1212.71 375.793C1217.2 385.815 1221.83 396.118 1226.84 406.853C1237.44 429.469 1249.45 447.807 1261.05 465.584C1282.37 498.221 1299.22 523.99 1300.97 565.743C1302.65 605.638 1304.4 646.894 1318.03 691.671L1320.09 698.345C1330.91 733.942 1342.14 770.684 1333.93 803.667Z" fill="#C4FF61"/>
<path d="M924.87 299.069C925.648 313.93 938.435 325.27 953.253 324.601C996.755 322.073 1041.14 342.399 1070.89 378.492C1101.43 415.58 1122.27 471.826 1128.04 532.846C1132.84 583.563 1119.64 636.807 1091.88 678.905C1072.01 709.037 1039.59 736.729 1000.56 756.903C988.763 763.016 971.224 771.245 954.981 772.239C940.098 773.168 928.758 785.977 929.665 800.837C930.551 815.158 942.453 826.196 956.601 826.196C957.141 826.196 957.724 826.174 958.264 826.152C984.745 824.532 1009.24 813.214 1025.38 804.877C1072.46 780.512 1112.08 746.34 1136.94 708.648C1171.87 655.664 1187.79 591.425 1181.76 527.792C1175 456.296 1149.79 389.379 1112.55 344.17C1071.97 294.944 1011.29 267.641 950.358 270.708C935.519 271.464 924.071 284.165 924.87 299.069Z" fill="#C4FF61"/>
<path d="M1256.08 668.775C1241.7 665.47 1227.03 674.369 1223.62 688.884C1216.99 716.986 1198.15 744.31 1170.55 765.845C1156.49 776.818 1142.49 787.856 1128.49 798.893C1102.77 819.176 1077 839.523 1050.86 859.373C1022.16 881.211 988.331 903.545 955.348 903.761C955.11 903.761 954.894 903.761 954.656 903.761C924.308 903.761 899.188 892.097 887.394 872.528C873.894 850.042 880.741 812.523 885.774 785.091C892.016 750.941 905.041 724.46 924.46 706.359C933.618 697.827 945.649 691.498 958.393 684.802C972.736 677.242 987.597 669.423 1001.31 657.348C1022.91 638.319 1038.92 614.127 1047.6 587.472C1073.46 508.092 1023.93 430.376 1001.44 400.654C992.435 388.774 975.522 386.42 963.62 395.405C951.719 404.412 949.386 421.347 958.372 433.227C971.936 451.155 1014.73 514.032 996.258 570.776C990.556 588.293 979.972 604.212 965.651 616.848C956.752 624.668 945.347 630.694 933.251 637.044C918.649 644.712 902.104 653.439 887.675 666.874C859.552 693.075 841.04 729.579 832.66 775.414C826.46 809.24 817.086 860.41 841.127 900.37C862.792 936.377 905.193 957.783 954.678 957.783C955.024 957.783 955.369 957.783 955.715 957.783C1004.57 957.48 1047.77 929.616 1083.59 902.4C1109.96 882.334 1135.97 861.836 1161.95 841.337C1175.91 830.343 1189.82 819.348 1203.79 808.462C1241.07 779.388 1266.8 741.351 1276.24 701.283C1279.61 686.724 1270.62 672.188 1256.08 668.775Z" fill="#C4FF61"/>
<path d="M1209.04 903.264C1146.57 954.154 1077.11 987.461 1002.5 1002.26L994.876 1003.77C950.985 1012.39 901.24 1022.19 861.712 1053.82C836.656 1073.88 823.89 1105.16 825.769 1141.9C828.167 1188.67 854.325 1237.14 889.403 1259.77C893.939 1262.69 898.993 1264.07 904.026 1264.07C912.882 1264.07 921.587 1259.71 926.749 1251.72C934.828 1239.19 931.221 1222.47 918.693 1214.37C897.978 1201.02 881.217 1168.66 879.705 1139.14C879.013 1125.74 881.195 1107.38 895.451 1095.96C924.654 1072.59 965.629 1064.53 1005.29 1056.75L1012.98 1055.24C1096.31 1038.7 1173.75 1001.67 1243.12 945.104C1254.68 935.686 1256.41 918.665 1246.99 907.109C1237.62 895.575 1220.64 893.804 1209.04 903.264Z" fill="#C4FF61"/>
<path d="M1074.69 1093.3C1036.2 1116.2 959.862 1134.41 959.085 1134.58C944.569 1138.01 935.584 1152.57 938.997 1167.07C941.956 1179.49 953.015 1187.87 965.262 1187.87C967.314 1187.87 969.388 1187.63 971.483 1187.15C974.939 1186.33 1056.61 1166.87 1102.27 1139.72C1115.1 1132.09 1119.31 1115.53 1111.69 1102.72C1104.06 1089.85 1087.43 1085.68 1074.69 1093.3Z" fill="#C4FF61"/>
<path d="M843.287 359.895C842.488 371.667 841.689 383.439 841.278 395.211C839.896 435.948 837.045 520.707 909.253 542.674C911.889 543.452 914.524 543.841 917.116 543.841C928.693 543.841 939.407 536.345 942.949 524.703C947.269 510.425 939.234 495.349 924.978 490.985C897.827 482.734 893.464 448.93 895.213 397.025C895.602 385.88 896.38 374.734 897.136 363.589C900.289 317.581 903.594 269.996 881.735 222.476C872.879 203.187 872.101 190.378 875.881 187.656C889.122 178.174 938.694 187.419 966.213 213.533C976.969 223.772 994.098 223.361 1004.38 212.54C1014.66 201.74 1014.21 184.654 1003.39 174.372C963.318 136.292 885.169 114.562 844.497 143.722C828.081 155.451 804.753 184.201 832.681 244.983C848.795 280.061 846.117 318.855 843.287 359.895Z" fill="#C4FF61"/>
</svg>
